<svg width="96" height="20" viewBox="0 0 96 20" fill="none" xmlns="http://www.w3.org/2000/svg">
<g id="Docdoc">
<path d="M6.2066 1.55008C8.06544 1.55008 9.69615 1.9134 11.0987 2.64004C12.5182 3.36668 13.6082 4.40594 14.3686 5.75782C15.1459 7.09281 15.5346 8.64748 15.5346 10.4218C15.5346 12.1962 15.1459 13.7508 14.3686 15.0858C13.6082 16.4039 12.5182 17.4263 11.0987 18.1529C9.69615 18.8795 8.06544 19.2429 6.2066 19.2429H0.0217285V1.55008H6.2066ZM6.07986 16.2265C7.9387 16.2265 9.37508 15.7195 10.389 14.7056C11.4029 13.6917 11.9099 12.2638 11.9099 10.4218C11.9099 8.57988 11.4029 7.1435 10.389 6.11269C9.37508 5.06498 7.9387 4.54113 6.07986 4.54113H3.57042V16.2265H6.07986Z" fill="#242424"/>
<path d="M24.4265 19.471C23.0747 19.471 21.858 19.1753 20.7764 18.5838C19.6949 17.9755 18.8416 17.1221 18.2163 16.0237C17.608 14.9253 17.3038 13.6579 17.3038 12.2215C17.3038 10.7851 17.6164 9.51775 18.2417 8.41934C18.8838 7.32094 19.7541 6.47601 20.8525 5.88456C21.9509 5.27621 23.176 4.97204 24.5279 4.97204C25.8798 4.97204 27.105 5.27621 28.2034 5.88456C29.3018 6.47601 30.1636 7.32094 30.7888 8.41934C31.431 9.51775 31.7521 10.7851 31.7521 12.2215C31.7521 13.6579 31.4225 14.9253 30.7635 16.0237C30.1213 17.1221 29.2426 17.9755 28.1273 18.5838C27.0289 19.1753 25.7953 19.471 24.4265 19.471ZM24.4265 16.3786C25.0687 16.3786 25.6686 16.2265 26.2262 15.9223C26.8008 15.6012 27.257 15.1281 27.595 14.5028C27.933 13.8776 28.102 13.1171 28.102 12.2215C28.102 10.8865 27.7471 9.86417 27.0374 9.15443C26.3445 8.42779 25.4911 8.06447 24.4772 8.06447C23.4633 8.06447 22.6099 8.42779 21.9171 9.15443C21.2412 9.86417 20.9032 10.8865 20.9032 12.2215C20.9032 13.5565 21.2327 14.5873 21.8918 15.314C22.5677 16.0237 23.4126 16.3786 24.4265 16.3786Z" fill="#242424"/>
<path d="M33.4426 12.2215C33.4426 10.7682 33.7384 9.50085 34.3298 8.41934C34.9213 7.32094 35.7408 6.47601 36.7886 5.88456C37.8363 5.27621 39.0361 4.97204 40.3879 4.97204C42.1285 4.97204 43.5649 5.4114 44.6971 6.29013C45.8462 7.15195 46.6151 8.36865 47.0037 9.94021H43.1762C42.9734 9.33187 42.627 8.85871 42.1369 8.52074C41.6638 8.16587 41.0723 7.98843 40.3626 7.98843C39.3487 7.98843 38.546 8.3602 37.9546 9.10374C37.3631 9.83037 37.0674 10.8696 37.0674 12.2215C37.0674 13.5565 37.3631 14.5958 37.9546 15.3393C38.546 16.0659 39.3487 16.4293 40.3626 16.4293C41.799 16.4293 42.7368 15.7871 43.1762 14.5028H47.0037C46.6151 16.0237 45.8462 17.2319 44.6971 18.1276C43.548 19.0232 42.1116 19.471 40.3879 19.471C39.0361 19.471 37.8363 19.1753 36.7886 18.5838C35.7408 17.9755 34.9213 17.1305 34.3298 16.049C33.7384 14.9506 33.4426 13.6748 33.4426 12.2215Z" fill="#242424"/>
<path d="M48.6909 12.1708C48.6909 10.7513 48.9698 9.4924 49.5274 8.39399C50.102 7.29559 50.8793 6.45066 51.8594 5.85921C52.8395 5.26776 53.9295 4.97204 55.1293 4.97204C56.0418 4.97204 56.9121 5.17482 57.7401 5.58039C58.5681 5.96905 59.2272 6.49291 59.7172 7.15195V0.485474H63.3166V19.2429H59.7172V17.1643C59.2779 17.8572 58.6611 18.4148 57.8669 18.8373C57.0726 19.2598 56.1516 19.471 55.1039 19.471C53.921 19.471 52.8395 19.1668 51.8594 18.5585C50.8793 17.9501 50.102 17.0967 49.5274 15.9983C48.9698 14.883 48.6909 13.6072 48.6909 12.1708ZM59.7426 12.2215C59.7426 11.3597 59.5736 10.6246 59.2356 10.0163C58.8977 9.39101 58.4414 8.91785 57.8669 8.59678C57.2923 8.25881 56.6755 8.08982 56.0165 8.08982C55.3574 8.08982 54.7491 8.25036 54.1914 8.57143C53.6338 8.8925 53.1775 9.36566 52.8226 9.99091C52.4847 10.5993 52.3157 11.3259 52.3157 12.1708C52.3157 13.0157 52.4847 13.7593 52.8226 14.4014C53.1775 15.0267 53.6338 15.5083 54.1914 15.8463C54.766 16.1842 55.3743 16.3532 56.0165 16.3532C56.6755 16.3532 57.2923 16.1927 57.8669 15.8716C58.4414 15.5336 58.8977 15.0605 59.2356 14.4521C59.5736 13.8269 59.7426 13.0833 59.7426 12.2215Z" fill="#242424"/>
<path d="M73.0181 19.471C71.6662 19.471 70.4495 19.1753 69.368 18.5838C68.2865 17.9755 67.4331 17.1221 66.8079 16.0237C66.1996 14.9253 65.8954 13.6579 65.8954 12.2215C65.8954 10.7851 66.208 9.51775 66.8333 8.41934C67.4754 7.32094 68.3457 6.47601 69.4441 5.88456C70.5425 5.27621 71.7676 4.97204 73.1195 4.97204C74.4714 4.97204 75.6965 5.27621 76.7949 5.88456C77.8933 6.47601 78.7552 7.32094 79.3804 8.41934C80.0226 9.51775 80.3436 10.7851 80.3436 12.2215C80.3436 13.6579 80.0141 14.9253 79.3551 16.0237C78.7129 17.1221 77.8342 17.9755 76.7189 18.5838C75.6205 19.1753 74.3869 19.471 73.0181 19.471ZM73.0181 16.3786C73.6603 16.3786 74.2602 16.2265 74.8178 15.9223C75.3924 15.6012 75.8486 15.1281 76.1866 14.5028C76.5246 13.8776 76.6936 13.1171 76.6936 12.2215C76.6936 10.8865 76.3387 9.86417 75.6289 9.15443C74.9361 8.42779 74.0827 8.06447 73.0688 8.06447C72.0549 8.06447 71.2015 8.42779 70.5087 9.15443C69.8327 9.86417 69.4948 10.8865 69.4948 12.2215C69.4948 13.5565 69.8243 14.5873 70.4833 15.314C71.1593 16.0237 72.0042 16.3786 73.0181 16.3786Z" fill="#242424"/>
<path d="M82.0342 12.2215C82.0342 10.7682 82.33 9.50085 82.9214 8.41934C83.5128 7.32094 84.3324 6.47601 85.3801 5.88456C86.4278 5.27621 87.6276 4.97204 88.9795 4.97204C90.7201 4.97204 92.1565 5.4114 93.2887 6.29013C94.4378 7.15195 95.2066 8.36865 95.5953 9.94021H91.7678C91.565 9.33187 91.2186 8.85871 90.7285 8.52074C90.2554 8.16587 89.6639 7.98843 88.9542 7.98843C87.9403 7.98843 87.1376 8.3602 86.5461 9.10374C85.9547 9.83037 85.659 10.8696 85.659 12.2215C85.659 13.5565 85.9547 14.5958 86.5461 15.3393C87.1376 16.0659 87.9403 16.4293 88.9542 16.4293C90.3906 16.4293 91.3284 15.7871 91.7678 14.5028H95.5953C95.2066 16.0237 94.4378 17.2319 93.2887 18.1276C92.1396 19.0232 90.7032 19.471 88.9795 19.471C87.6276 19.471 86.4278 19.1753 85.3801 18.5838C84.3324 17.9755 83.5128 17.1305 82.9214 16.049C82.33 14.9506 82.0342 13.6748 82.0342 12.2215Z" fill="#242424"/>
</g>
</svg>
